<svg width="199" height="17" viewBox="0 0 199 17" fill="none" xmlns="http://www.w3.org/2000/svg">
<path d="M8.01606 9.69606H2.08805V16.5601H5.48363e-05V0.240058H8.73606V2.20806H2.08805V7.72806H8.01606V9.69606ZM19.4552 10.1761V16.5601H17.3672V0.240058H22.4792C24.0152 0.240058 25.1992 0.648058 26.0312 1.46406C26.8792 2.26406 27.3032 3.33606 27.3032 4.68006V5.71206C27.3032 6.67206 27.0792 7.50406 26.6312 8.20806C26.1992 8.91206 25.5752 9.43206 24.7592 9.76806C25.4472 10.8721 26.0872 11.9921 26.6792 13.1281C27.2712 14.2641 27.8152 15.4081 28.3112 16.5601H25.9112C24.9992 14.3841 23.9352 12.2561 22.7192 10.1761H19.4552ZM22.4792 2.16006H19.4552V8.25606H22.4792C23.2952 8.25606 23.9432 8.03206 24.4232 7.58406C24.9032 7.12006 25.1432 6.49606 25.1432 5.71206V4.68006C25.1432 3.88006 24.9032 3.26406 24.4232 2.83206C23.9432 2.38406 23.2952 2.16006 22.4792 2.16006ZM46.1279 14.6161V16.5601H37.0079V0.240058H45.8879V2.20806H39.0959V7.32006H45.1679V9.28806H39.0959V14.6161H46.1279ZM64.1044 14.6161V16.5601H54.9844V0.240058H63.8644V2.20806H57.0724V7.32006H63.1444V9.28806H57.0724V14.6161H64.1044ZM86.2036 9.69606H80.2756V16.5601H78.1876V0.240058H86.9236V2.20806H80.2756V7.72806H86.2036V9.69606ZM104.195 16.5601L102.971 12.7681H96.7787L95.5547 16.5601H93.5147L98.9387 0.240058H100.907L106.355 16.5601H104.195ZM98.2907 8.06406L97.3787 10.8721H102.347L101.435 8.06406L99.8747 3.02406L98.2907 8.06406ZM117.969 14.9281C118.977 14.9281 119.753 14.7121 120.297 14.2801C120.841 13.8321 121.113 13.1841 121.113 12.3361C121.113 11.6321 120.921 11.0401 120.537 10.5601C120.169 10.0801 119.561 9.71206 118.713 9.45606L116.769 8.88006C115.553 8.51206 114.657 7.96006 114.081 7.22406C113.505 6.47206 113.217 5.55206 113.217 4.46406C113.217 3.63206 113.377 2.88006 113.697 2.20806C114.033 1.53606 114.561 1.00006 115.281 0.600058C116.017 0.200058 116.977 5.72205e-05 118.161 5.72205e-05C118.881 5.72205e-05 119.625 0.0880575 120.393 0.264058C121.161 0.424058 121.937 0.688058 122.721 1.05606L122.049 2.85606C121.281 2.52006 120.585 2.28006 119.961 2.13606C119.353 1.97606 118.769 1.89606 118.209 1.89606C117.297 1.89606 116.585 2.08806 116.073 2.47206C115.577 2.84006 115.329 3.45606 115.329 4.32006C115.329 4.94406 115.497 5.47206 115.833 5.90406C116.169 6.32006 116.769 6.66406 117.633 6.93606L119.577 7.51206C122.009 8.23206 123.225 9.78406 123.225 12.1681C123.225 13.5441 122.809 14.6641 121.977 15.5281C121.145 16.3761 119.809 16.8001 117.969 16.8001C117.217 16.8001 116.417 16.7121 115.569 16.5361C114.737 16.3441 113.873 16.0481 112.977 15.6481L113.625 13.8721C114.473 14.2561 115.233 14.5281 115.905 14.6881C116.593 14.8481 117.281 14.9281 117.969 14.9281ZM141.216 16.5601V9.28806H134.088V16.5601H132V0.240058H134.088V7.32006H141.216V0.240058H143.304V16.5601H141.216ZM155.697 16.5601H153.609V0.240058H155.697V16.5601ZM177.143 6.60006V10.1761C177.143 12.2081 176.631 13.8241 175.607 15.0241C174.599 16.2081 173.143 16.8001 171.239 16.8001C169.335 16.8001 167.871 16.2081 166.847 15.0241C165.839 13.8241 165.335 12.2081 165.335 10.1761V6.60006C165.335 4.58406 165.839 2.98406 166.847 1.80006C167.871 0.600058 169.335 5.72205e-05 171.239 5.72205e-05C173.143 5.72205e-05 174.599 0.600058 175.607 1.80006C176.631 2.98406 177.143 4.58406 177.143 6.60006ZM174.983 6.60006C174.983 5.11206 174.663 3.96806 174.023 3.16806C173.399 2.35206 172.471 1.94406 171.239 1.94406C170.023 1.94406 169.095 2.35206 168.455 3.16806C167.815 3.96806 167.495 5.11206 167.495 6.60006V10.1761C167.495 11.6801 167.815 12.8401 168.455 13.6561C169.095 14.4721 170.023 14.8801 171.239 14.8801C172.471 14.8801 173.399 14.4721 174.023 13.6561C174.663 12.8401 174.983 11.6801 174.983 10.1761V6.60006ZM186.797 16.5601V0.240058H188.981C190.437 2.32006 191.773 4.41606 192.989 6.52806C194.221 8.62406 195.373 10.8161 196.445 13.1041L196.205 6.86406V0.240058H198.245V16.5601H196.061C194.941 14.2241 193.781 11.9521 192.581 9.74406C191.397 7.52006 190.101 5.35206 188.693 3.24006L188.837 9.88806V16.5601H186.797Z" fill="black"/>
</svg>
