<svg width="204" height="17" viewBox="0 0 204 17" fill="none" xmlns="http://www.w3.org/2000/svg">
<path d="M8.01606 9.69606H2.08805V16.5601H5.48363e-05V0.240058H8.73606V2.20806H2.08805V7.72806H8.01606V9.69606ZM19.4552 10.1761V16.5601H17.3672V0.240058H22.4792C24.0152 0.240058 25.1992 0.648058 26.0312 1.46406C26.8792 2.26406 27.3032 3.33606 27.3032 4.68006V5.71206C27.3032 6.67206 27.0792 7.50406 26.6312 8.20806C26.1992 8.91206 25.5752 9.43206 24.7592 9.76806C25.4472 10.8721 26.0872 11.9921 26.6792 13.1281C27.2712 14.2641 27.8152 15.4081 28.3112 16.5601H25.9112C24.9992 14.3841 23.9352 12.2561 22.7192 10.1761H19.4552ZM22.4792 2.16006H19.4552V8.25606H22.4792C23.2952 8.25606 23.9432 8.03206 24.4232 7.58406C24.9032 7.12006 25.1432 6.49606 25.1432 5.71206V4.68006C25.1432 3.88006 24.9032 3.26406 24.4232 2.83206C23.9432 2.38406 23.2952 2.16006 22.4792 2.16006ZM46.1279 14.6161V16.5601H37.0079V0.240058H45.8879V2.20806H39.0959V7.32006H45.1679V9.28806H39.0959V14.6161H46.1279ZM64.1044 14.6161V16.5601H54.9844V0.240058H63.8644V2.20806H57.0724V7.32006H63.1444V9.28806H57.0724V14.6161H64.1044ZM91.4301 9.69606H85.5021V16.5601H83.4141V0.240058H92.1501V2.20806H85.5021V7.72806H91.4301V9.69606ZM109.421 16.5601L108.197 12.7681H102.005L100.781 16.5601H98.7413L104.165 0.240058H106.133L111.581 16.5601H109.421ZM103.517 8.06406L102.605 10.8721H107.573L106.661 8.06406L105.101 3.02406L103.517 8.06406ZM123.195 14.9281C124.203 14.9281 124.979 14.7121 125.523 14.2801C126.067 13.8321 126.339 13.1841 126.339 12.3361C126.339 11.6321 126.147 11.0401 125.763 10.5601C125.395 10.0801 124.787 9.71206 123.939 9.45606L121.995 8.88006C120.779 8.51206 119.883 7.96006 119.307 7.22406C118.731 6.47206 118.443 5.55206 118.443 4.46406C118.443 3.63206 118.603 2.88006 118.923 2.20806C119.259 1.53606 119.787 1.00006 120.507 0.600058C121.243 0.200058 122.203 5.72205e-05 123.387 5.72205e-05C124.107 5.72205e-05 124.851 0.0880575 125.619 0.264058C126.387 0.424058 127.163 0.688058 127.947 1.05606L127.275 2.85606C126.507 2.52006 125.811 2.28006 125.187 2.13606C124.579 1.97606 123.995 1.89606 123.435 1.89606C122.523 1.89606 121.811 2.08806 121.299 2.47206C120.803 2.84006 120.555 3.45606 120.555 4.32006C120.555 4.94406 120.723 5.47206 121.059 5.90406C121.395 6.32006 121.995 6.66406 122.859 6.93606L124.803 7.51206C127.235 8.23206 128.451 9.78406 128.451 12.1681C128.451 13.5441 128.035 14.6641 127.203 15.5281C126.371 16.3761 125.035 16.8001 123.195 16.8001C122.443 16.8001 121.643 16.7121 120.795 16.5361C119.963 16.3441 119.099 16.0481 118.203 15.6481L118.851 13.8721C119.699 14.2561 120.459 14.5281 121.131 14.6881C121.819 14.8481 122.507 14.9281 123.195 14.9281ZM146.443 16.5601V9.28806H139.315V16.5601H137.227V0.240058H139.315V7.32006H146.443V0.240058H148.531V16.5601H146.443ZM160.924 16.5601H158.836V0.240058H160.924V16.5601ZM182.37 6.60006V10.1761C182.37 12.2081 181.858 13.8241 180.834 15.0241C179.826 16.2081 178.37 16.8001 176.466 16.8001C174.562 16.8001 173.098 16.2081 172.074 15.0241C171.066 13.8241 170.562 12.2081 170.562 10.1761V6.60006C170.562 4.58406 171.066 2.98406 172.074 1.80006C173.098 0.600058 174.562 5.72205e-05 176.466 5.72205e-05C178.37 5.72205e-05 179.826 0.600058 180.834 1.80006C181.858 2.98406 182.37 4.58406 182.37 6.60006ZM180.21 6.60006C180.21 5.11206 179.89 3.96806 179.25 3.16806C178.626 2.35206 177.698 1.94406 176.466 1.94406C175.25 1.94406 174.322 2.35206 173.682 3.16806C173.042 3.96806 172.722 5.11206 172.722 6.60006V10.1761C172.722 11.6801 173.042 12.8401 173.682 13.6561C174.322 14.4721 175.25 14.8801 176.466 14.8801C177.698 14.8801 178.626 14.4721 179.25 13.6561C179.89 12.8401 180.21 11.6801 180.21 10.1761V6.60006ZM192.023 16.5601V0.240058H194.207C195.663 2.32006 196.999 4.41606 198.215 6.52806C199.447 8.62406 200.599 10.8161 201.671 13.1041L201.431 6.86406V0.240058H203.471V16.5601H201.287C200.167 14.2241 199.007 11.9521 197.807 9.74406C196.623 7.52006 195.327 5.35206 193.919 3.24006L194.063 9.88806V16.5601H192.023Z" fill="black"/>
</svg>
