<svg width="340" height="28" viewBox="0 0 340 28" fill="none" xmlns="http://www.w3.org/2000/svg">
<path d="M13.3598 16.1601H3.47977V27.6001H-0.000234127V0.400097H14.5598V3.6801H3.47977V12.8801H13.3598V16.1601ZM32.4251 16.9601V27.6001H28.9451V0.400097H37.4651C40.0251 0.400097 41.9984 1.0801 43.3851 2.4401C44.7984 3.77343 45.5051 5.5601 45.5051 7.8001V9.5201C45.5051 11.1201 45.1317 12.5068 44.3851 13.6801C43.6651 14.8534 42.6251 15.7201 41.2651 16.2801C42.4117 18.1201 43.4784 19.9868 44.4651 21.8801C45.4517 23.7734 46.3584 25.6801 47.1851 27.6001H43.1851C41.6651 23.9734 39.8917 20.4268 37.8651 16.9601H32.4251ZM37.4651 3.6001H32.4251V13.7601H37.4651C38.8251 13.7601 39.9051 13.3868 40.7051 12.6401C41.5051 11.8668 41.9051 10.8268 41.9051 9.5201V7.8001C41.9051 6.46676 41.5051 5.4401 40.7051 4.7201C39.9051 3.97343 38.8251 3.6001 37.4651 3.6001ZM76.8795 24.3601V27.6001H61.6795V0.400097H76.4795V3.6801H65.1595V12.2001H75.2795V15.4801H65.1595V24.3601H76.8795ZM106.84 24.3601V27.6001H91.6404V0.400097H106.44V3.6801H95.1204V12.2001H105.24V15.4801H95.1204V24.3601H106.84ZM152.383 16.1601H142.503V27.6001H139.023V0.400097H153.583V3.6801H142.503V12.8801H152.383V16.1601ZM182.369 27.6001L180.329 21.2801H170.009L167.969 27.6001H164.569L173.609 0.400097H176.889L185.969 27.6001H182.369ZM172.529 13.4401L171.009 18.1201H179.289L177.769 13.4401L175.169 5.0401L172.529 13.4401ZM205.325 24.8801C207.005 24.8801 208.299 24.5201 209.205 23.8001C210.112 23.0534 210.565 21.9734 210.565 20.5601C210.565 19.3868 210.245 18.4001 209.605 17.6001C208.992 16.8001 207.979 16.1868 206.565 15.7601L203.325 14.8001C201.299 14.1868 199.805 13.2668 198.845 12.0401C197.885 10.7868 197.405 9.25343 197.405 7.4401C197.405 6.05343 197.672 4.8001 198.205 3.6801C198.765 2.5601 199.645 1.66676 200.845 1.0001C202.072 0.333429 203.672 9.53674e-05 205.645 9.53674e-05C206.845 9.53674e-05 208.085 0.146763 209.365 0.440097C210.645 0.706763 211.939 1.14676 213.245 1.7601L212.125 4.7601C210.845 4.2001 209.685 3.8001 208.645 3.5601C207.632 3.29343 206.659 3.1601 205.725 3.1601C204.205 3.1601 203.019 3.4801 202.165 4.1201C201.339 4.73343 200.925 5.7601 200.925 7.2001C200.925 8.2401 201.205 9.1201 201.765 9.8401C202.325 10.5334 203.325 11.1068 204.765 11.5601L208.005 12.5201C212.059 13.7201 214.085 16.3068 214.085 20.2801C214.085 22.5734 213.392 24.4401 212.005 25.8801C210.619 27.2934 208.392 28.0001 205.325 28.0001C204.072 28.0001 202.739 27.8534 201.325 27.5601C199.939 27.2401 198.499 26.7468 197.005 26.0801L198.085 23.1201C199.499 23.7601 200.765 24.2134 201.885 24.4801C203.032 24.7468 204.179 24.8801 205.325 24.8801ZM244.071 27.6001V15.4801H232.191V27.6001H228.711V0.400097H232.191V12.2001H244.071V0.400097H247.551V27.6001H244.071ZM268.206 27.6001H264.726V0.400097H268.206V27.6001ZM303.949 11.0001V16.9601C303.949 20.3468 303.096 23.0401 301.389 25.0401C299.709 27.0134 297.283 28.0001 294.109 28.0001C290.936 28.0001 288.496 27.0134 286.789 25.0401C285.109 23.0401 284.269 20.3468 284.269 16.9601V11.0001C284.269 7.6401 285.109 4.97343 286.789 3.0001C288.496 1.0001 290.936 9.53674e-05 294.109 9.53674e-05C297.283 9.53674e-05 299.709 1.0001 301.389 3.0001C303.096 4.97343 303.949 7.6401 303.949 11.0001ZM300.349 11.0001C300.349 8.5201 299.816 6.61343 298.749 5.2801C297.709 3.9201 296.163 3.2401 294.109 3.2401C292.083 3.2401 290.536 3.9201 289.469 5.2801C288.403 6.61343 287.869 8.5201 287.869 11.0001V16.9601C287.869 19.4668 288.403 21.4001 289.469 22.7601C290.536 24.1201 292.083 24.8001 294.109 24.8001C296.163 24.8001 297.709 24.1201 298.749 22.7601C299.816 21.4001 300.349 19.4668 300.349 16.9601V11.0001ZM320.039 27.6001V0.400097H323.679C326.105 3.86676 328.332 7.3601 330.359 10.8801C332.412 14.3734 334.332 18.0268 336.119 21.8401L335.719 11.4401V0.400097H339.119V27.6001H335.479C333.612 23.7068 331.679 19.9201 329.679 16.2401C327.705 12.5334 325.545 8.9201 323.199 5.4001L323.439 16.4801V27.6001H320.039Z" fill="black"/>
</svg>
